<svg xmlns="http://www.w3.org/2000/svg" xmlns:xlink="http://www.w3.org/1999/xlink" version="1.1" data-diagram-type="CLASS" style="width:7987px;height:5396px;background:#FFFFFF;" width="7987.5px" height="5396.875px" viewBox="0 0 7987 5396" zoomAndPan="magnify" preserveAspectRatio="none" contentStyleType="text/css"><?plantuml 1.2026.8?><defs/><g font-family="sans-serif" lengthAdjust="spacing"><g class="title" data-source-line="1"><text x="3541.258" y="76.666" fill="#000" font-size="43.75" textLength="886.215" font-weight="700">TENANT-16 — Super Admin Create Tenant</text><text x="3680.54" y="131.696" fill="#000" font-size="43.75" textLength="607.651" font-weight="700">Application-design viewpoint</text></g><!--cluster Master Web / API--><g class="cluster" data-qualified-name="Master Web . API" id="ent0001" data-source-line="15"><rect x="21.875" y="197.559" width="2156.25" height="2048.438" fill="#EFF6FF" style="stroke:#000;stroke-width:4.688;" rx="7.813" ry="7.813"/><text x="922.533" y="249.225" fill="#000" font-size="43.75" textLength="354.935" font-weight="700">Master Web / API</text></g><!--cluster Master Domain (PostgreSQL)--><g class="cluster" data-qualified-name="Master Domain .PostgreSQL." id="ent0007" data-source-line="48"><rect x="5393.75" y="810.059" width="1362.5" height="3162.5" fill="#F0FDF4" style="stroke:#000;stroke-width:4.688;" rx="7.813" ry="7.813"/><text x="5771.132" y="861.725" fill="#000" font-size="43.75" textLength="607.736" font-weight="700">Master Domain (PostgreSQL)</text></g><!--cluster Provisioning / Infrastructure--><g class="cluster" data-qualified-name="Provisioning . Infrastructure" id="ent0014" data-source-line="89"><rect x="2253.125" y="1670.996" width="3065.625" height="2789.063" fill="#FFF7ED" style="stroke:#000;stroke-width:4.688;" rx="7.813" ry="7.813"/><text x="3493.007" y="1722.662" fill="#000" font-size="43.75" textLength="585.861" font-weight="700">Provisioning / Infrastructure</text></g><!--cluster Tenant Domain (dedicated database)--><g class="cluster" data-qualified-name="Tenant Domain .dedicated database." id="ent0022" data-source-line="112"><rect x="3553.125" y="4616.309" width="812.5" height="737.5" fill="#FDF4FF" style="stroke:#000;stroke-width:4.688;" rx="7.813" ry="7.813"/><text x="3577.705" y="4667.975" fill="#000" font-size="43.75" textLength="763.339" font-weight="700">Tenant Domain (dedicated database)</text></g><!--class MasterTenantController--><g class="entity" data-qualified-name="Master Web . API.MasterTenantController" id="ent0002" data-source-line="16"><rect x="71.875" y="372.559" width="2054.977" height="238.477" fill="#F8FAFC" style="stroke:#CBD5E1;stroke-width:1.563;" rx="7.813" ry="7.813"/><ellipse cx="856.299" cy="439.282" rx="34.375" ry="34.375" fill="#ADD1B2" style="stroke:#181818;stroke-width:3.125;"/><path d="M864.941,426.392 Q865.43,425.708 866.016,425.366 Q866.602,425.024 867.285,425.024 Q868.457,425.024 869.189,425.854 Q869.922,426.636 869.922,428.54 L869.922,433.081 Q869.922,434.985 869.189,435.815 Q868.457,436.646 867.285,436.646 Q866.211,436.646 865.576,436.011 Q864.941,435.425 864.6,433.813 Q864.453,432.69 863.867,432.104 Q862.842,430.933 860.938,430.249 Q859.033,429.565 857.08,429.565 Q854.688,429.565 852.686,430.591 Q850.732,431.616 849.17,433.96 Q847.656,436.304 847.656,439.526 L847.656,442.944 Q847.656,446.802 850.439,449.39 Q853.223,451.929 858.203,451.929 Q861.133,451.929 863.184,451.147 Q864.404,450.659 865.723,449.292 Q866.553,448.462 866.992,448.218 Q867.48,447.974 868.115,447.974 Q869.141,447.974 869.922,448.804 Q870.752,449.585 870.752,450.659 Q870.752,451.733 869.678,453.003 Q868.115,454.81 865.625,455.835 Q862.256,457.251 858.203,457.251 Q853.467,457.251 849.707,455.298 Q846.631,453.735 844.482,450.415 Q842.334,447.046 842.334,443.042 L842.334,439.429 Q842.334,435.278 844.238,431.714 Q846.191,428.101 849.609,426.196 Q853.027,424.243 856.885,424.243 Q859.18,424.243 861.182,424.78 Q863.232,425.269 864.941,426.392 Z " fill="#000"/><text x="996.959" y="427.112" fill="#000" font-size="37.5" textLength="306.372" font-style="italic">«REST controller»</text><text x="920.361" y="480.768" fill="#000" font-size="43.75" textLength="459.567">MasterTenantController</text><line x1="75" y1="506.006" x2="2123.727" y2="506.006" style="stroke:#CBD5E1;stroke-width:1.563;"/><line x1="75" y1="531.006" x2="2123.727" y2="531.006" style="stroke:#CBD5E1;stroke-width:1.563;"/><text x="90.625" y="588.922" fill="#000" font-size="43.75" textLength="2017.477">+onboardTenant(request: OnboardTenantRequest): ResponseEntity&lt;ApiResponse&lt;TenantResponse>></text></g><!--class OnboardTenantRequest--><g class="entity" data-qualified-name="Master Web . API.OnboardTenantRequest" id="ent0003" data-source-line="20"><rect x="243.75" y="930.371" width="780.417" height="513.623" fill="#F8FAFC" style="stroke:#CBD5E1;stroke-width:1.563;" rx="7.813" ry="7.813"/><ellipse cx="385.97" cy="997.095" rx="34.375" ry="34.375" fill="#ADD1B2" style="stroke:#181818;stroke-width:3.125;"/><path d="M394.612,984.204 Q395.1,983.521 395.686,983.179 Q396.272,982.837 396.956,982.837 Q398.128,982.837 398.86,983.667 Q399.593,984.448 399.593,986.353 L399.593,990.894 Q399.593,992.798 398.86,993.628 Q398.128,994.458 396.956,994.458 Q395.882,994.458 395.247,993.823 Q394.612,993.237 394.27,991.626 Q394.124,990.503 393.538,989.917 Q392.513,988.745 390.608,988.062 Q388.704,987.378 386.751,987.378 Q384.358,987.378 382.356,988.403 Q380.403,989.429 378.841,991.772 Q377.327,994.116 377.327,997.339 L377.327,1000.757 Q377.327,1004.614 380.11,1007.202 Q382.893,1009.741 387.874,1009.741 Q390.804,1009.741 392.854,1008.96 Q394.075,1008.472 395.393,1007.104 Q396.223,1006.274 396.663,1006.03 Q397.151,1005.786 397.786,1005.786 Q398.811,1005.786 399.593,1006.616 Q400.423,1007.397 400.423,1008.472 Q400.423,1009.546 399.348,1010.815 Q397.786,1012.622 395.296,1013.647 Q391.927,1015.063 387.874,1015.063 Q383.138,1015.063 379.378,1013.11 Q376.302,1011.548 374.153,1008.228 Q372.005,1004.858 372.005,1000.854 L372.005,997.241 Q372.005,993.091 373.909,989.526 Q375.862,985.913 379.28,984.009 Q382.698,982.056 386.555,982.056 Q388.85,982.056 390.852,982.593 Q392.903,983.081 394.612,984.204 Z " fill="#000"/><text x="556.557" y="984.924" fill="#000" font-size="37.5" textLength="256.366" font-style="italic">«request DTO»</text><text x="450.032" y="1038.58" fill="#000" font-size="43.75" textLength="469.415">OnboardTenantRequest</text><line x1="246.875" y1="1063.818" x2="1021.042" y2="1063.818" style="stroke:#CBD5E1;stroke-width:1.563;"/><text x="262.5" y="1121.735" fill="#000" font-size="43.75" textLength="259.018">+code: String</text><text x="262.5" y="1176.764" fill="#000" font-size="43.75" textLength="273.587">+name: String</text><text x="262.5" y="1231.793" fill="#000" font-size="43.75" textLength="378.177">+subdomain: String</text><text x="262.5" y="1286.823" fill="#000" font-size="43.75" textLength="526.41">+customDbUrl: String [0..1]</text><text x="262.5" y="1341.852" fill="#000" font-size="43.75" textLength="524.06">+dbUsername: String [0..1]</text><text x="262.5" y="1396.881" fill="#000" font-size="43.75" textLength="742.917">+dbPassword: String [0..1] {write-only}</text><line x1="246.875" y1="1418.994" x2="1021.042" y2="1418.994" style="stroke:#CBD5E1;stroke-width:1.563;"/></g><!--class TenantAdminRequest--><g class="entity" data-qualified-name="Master Web . API.TenantAdminRequest" id="ent0004" data-source-line="29"><rect x="264.063" y="1845.996" width="741.473" height="348.535" fill="#F8FAFC" style="stroke:#CBD5E1;stroke-width:1.563;" rx="7.813" ry="7.813"/><ellipse cx="409.935" cy="1912.72" rx="34.375" ry="34.375" fill="#ADD1B2" style="stroke:#181818;stroke-width:3.125;"/><path d="M418.578,1899.829 Q419.066,1899.146 419.652,1898.804 Q420.238,1898.462 420.921,1898.462 Q422.093,1898.462 422.826,1899.292 Q423.558,1900.073 423.558,1901.978 L423.558,1906.519 Q423.558,1908.423 422.826,1909.253 Q422.093,1910.083 420.921,1910.083 Q419.847,1910.083 419.212,1909.448 Q418.578,1908.862 418.236,1907.251 Q418.089,1906.128 417.503,1905.542 Q416.478,1904.37 414.574,1903.687 Q412.669,1903.003 410.716,1903.003 Q408.324,1903.003 406.322,1904.028 Q404.369,1905.054 402.806,1907.397 Q401.292,1909.741 401.292,1912.964 L401.292,1916.382 Q401.292,1920.239 404.076,1922.827 Q406.859,1925.366 411.839,1925.366 Q414.769,1925.366 416.82,1924.585 Q418.04,1924.097 419.359,1922.729 Q420.189,1921.899 420.628,1921.655 Q421.117,1921.411 421.751,1921.411 Q422.777,1921.411 423.558,1922.241 Q424.388,1923.022 424.388,1924.097 Q424.388,1925.171 423.314,1926.44 Q421.751,1928.247 419.261,1929.272 Q415.892,1930.688 411.839,1930.688 Q407.103,1930.688 403.343,1928.735 Q400.267,1927.173 398.119,1923.853 Q395.97,1920.483 395.97,1916.479 L395.97,1912.866 Q395.97,1908.716 397.874,1905.151 Q399.828,1901.538 403.246,1899.634 Q406.664,1897.681 410.521,1897.681 Q412.816,1897.681 414.818,1898.218 Q416.869,1898.706 418.578,1899.829 Z " fill="#000"/><text x="557.397" y="1900.549" fill="#000" font-size="37.5" textLength="256.366" font-style="italic">«request DTO»</text><text x="473.997" y="1954.205" fill="#000" font-size="43.75" textLength="423.166">TenantAdminRequest</text><line x1="267.188" y1="1979.443" x2="1002.411" y2="1979.443" style="stroke:#CBD5E1;stroke-width:1.563;"/><text x="282.813" y="2037.36" fill="#000" font-size="43.75" textLength="392.703">+adminEmail: String</text><text x="282.813" y="2092.389" fill="#000" font-size="43.75" textLength="400.009">+adminName: String</text><text x="282.813" y="2147.418" fill="#000" font-size="43.75" textLength="703.973">+adminPassword: String {write-only}</text><line x1="267.188" y1="2169.531" x2="1002.411" y2="2169.531" style="stroke:#CBD5E1;stroke-width:1.563;"/></g><!--class TenantResponse--><g class="entity" data-qualified-name="Master Web . API.TenantResponse" id="ent0005" data-source-line="35"><rect x="1134.375" y="902.246" width="568.845" height="568.652" fill="#F8FAFC" style="stroke:#CBD5E1;stroke-width:1.563;" rx="7.813" ry="7.813"/><ellipse cx="1242.286" cy="968.97" rx="34.375" ry="34.375" fill="#ADD1B2" style="stroke:#181818;stroke-width:3.125;"/><path d="M1250.928,956.079 Q1251.417,955.396 1252.003,955.054 Q1252.589,954.712 1253.272,954.712 Q1254.444,954.712 1255.177,955.542 Q1255.909,956.323 1255.909,958.228 L1255.909,962.769 Q1255.909,964.673 1255.177,965.503 Q1254.444,966.333 1253.272,966.333 Q1252.198,966.333 1251.563,965.698 Q1250.928,965.112 1250.587,963.501 Q1250.44,962.378 1249.854,961.792 Q1248.829,960.62 1246.925,959.937 Q1245.02,959.253 1243.067,959.253 Q1240.675,959.253 1238.673,960.278 Q1236.72,961.304 1235.157,963.647 Q1233.643,965.991 1233.643,969.214 L1233.643,972.632 Q1233.643,976.489 1236.427,979.077 Q1239.21,981.616 1244.19,981.616 Q1247.12,981.616 1249.171,980.835 Q1250.391,980.347 1251.71,978.979 Q1252.54,978.149 1252.979,977.905 Q1253.468,977.661 1254.102,977.661 Q1255.128,977.661 1255.909,978.491 Q1256.739,979.272 1256.739,980.347 Q1256.739,981.421 1255.665,982.69 Q1254.102,984.497 1251.612,985.522 Q1248.243,986.938 1244.19,986.938 Q1239.454,986.938 1235.694,984.985 Q1232.618,983.423 1230.47,980.103 Q1228.321,976.733 1228.321,972.729 L1228.321,969.116 Q1228.321,964.966 1230.225,961.401 Q1232.178,957.788 1235.596,955.884 Q1239.014,953.931 1242.872,953.931 Q1245.167,953.931 1247.169,954.468 Q1249.22,954.956 1250.928,956.079 Z " fill="#000"/><text x="1323.428" y="956.799" fill="#000" font-size="37.5" textLength="285.553" font-style="italic">«response DTO»</text><text x="1299.599" y="1010.455" fill="#000" font-size="43.75" textLength="333.209">TenantResponse</text><line x1="1137.5" y1="1035.693" x2="1700.095" y2="1035.693" style="stroke:#CBD5E1;stroke-width:1.563;"/><text x="1153.125" y="1093.61" fill="#000" font-size="43.75" textLength="181.238">+id: Long</text><text x="1153.125" y="1148.639" fill="#000" font-size="43.75" textLength="259.018">+code: String</text><text x="1153.125" y="1203.668" fill="#000" font-size="43.75" textLength="273.587">+name: String</text><text x="1153.125" y="1258.698" fill="#000" font-size="43.75" textLength="378.177">+subdomain: String</text><text x="1153.125" y="1313.727" fill="#000" font-size="43.75" textLength="329.514">+dbName: String</text><text x="1153.125" y="1368.756" fill="#000" font-size="43.75" textLength="280.872">+status: String</text><text x="1153.125" y="1423.785" fill="#000" font-size="43.75" textLength="531.345">+createdAt: LocalDateTime</text><line x1="1137.5" y1="1445.898" x2="1700.095" y2="1445.898" style="stroke:#CBD5E1;stroke-width:1.563;"/></g><!--class MasterTenantService--><g class="entity" data-qualified-name="Master Domain .PostgreSQL..MasterTenantService" id="ent0008" data-source-line="49"><rect x="5443.75" y="985.059" width="1262.094" height="403.564" fill="#F8FAFC" style="stroke:#CBD5E1;stroke-width:1.563;" rx="7.813" ry="7.813"/><ellipse cx="5853.618" cy="1051.782" rx="34.375" ry="34.375" fill="#ADD1B2" style="stroke:#181818;stroke-width:3.125;"/><path d="M5862.26,1038.892 Q5862.749,1038.208 5863.335,1037.866 Q5863.921,1037.524 5864.604,1037.524 Q5865.776,1037.524 5866.508,1038.354 Q5867.241,1039.136 5867.241,1041.04 L5867.241,1045.581 Q5867.241,1047.485 5866.508,1048.315 Q5865.776,1049.146 5864.604,1049.146 Q5863.53,1049.146 5862.895,1048.511 Q5862.26,1047.925 5861.919,1046.313 Q5861.772,1045.19 5861.186,1044.604 Q5860.161,1043.433 5858.257,1042.749 Q5856.352,1042.065 5854.399,1042.065 Q5852.007,1042.065 5850.005,1043.091 Q5848.051,1044.116 5846.489,1046.46 Q5844.975,1048.804 5844.975,1052.026 L5844.975,1055.444 Q5844.975,1059.302 5847.758,1061.89 Q5850.542,1064.429 5855.522,1064.429 Q5858.452,1064.429 5860.503,1063.647 Q5861.723,1063.159 5863.042,1061.792 Q5863.872,1060.962 5864.311,1060.718 Q5864.799,1060.474 5865.434,1060.474 Q5866.46,1060.474 5867.241,1061.304 Q5868.071,1062.085 5868.071,1063.159 Q5868.071,1064.233 5866.997,1065.503 Q5865.434,1067.31 5862.944,1068.335 Q5859.575,1069.751 5855.522,1069.751 Q5850.786,1069.751 5847.026,1067.798 Q5843.95,1066.235 5841.801,1062.915 Q5839.653,1059.546 5839.653,1055.542 L5839.653,1051.929 Q5839.653,1047.778 5841.557,1044.214 Q5843.51,1040.601 5846.928,1038.696 Q5850.346,1036.743 5854.204,1036.743 Q5856.499,1036.743 5858.501,1037.28 Q5860.551,1037.769 5862.26,1038.892 Z " fill="#000"/><text x="5950.475" y="1039.612" fill="#000" font-size="37.5" textLength="350.208" font-style="italic">«application service»</text><text x="5917.68" y="1093.268" fill="#000" font-size="43.75" textLength="415.796">MasterTenantService</text><line x1="5446.875" y1="1118.506" x2="6702.719" y2="1118.506" style="stroke:#CBD5E1;stroke-width:1.563;"/><line x1="5446.875" y1="1143.506" x2="6702.719" y2="1143.506" style="stroke:#CBD5E1;stroke-width:1.563;"/><text x="5462.5" y="1201.422" fill="#000" font-size="43.75" textLength="1224.594">+onboardTenant(request: OnboardTenantRequest): TenantInfo</text><text x="5462.5" y="1256.451" fill="#000" font-size="43.75" textLength="1198.938">-registerTenant(request: OnboardTenantRequest): TenantInfo</text><text x="5462.5" y="1311.481" fill="#000" font-size="43.75" textLength="522.736">-randomPassword(): String</text><text x="5462.5" y="1366.51" fill="#000" font-size="43.75" textLength="870.45">-validateUrl(url: String, dbName: String): void</text></g><!--class TenantInfoRepository--><g class="entity" data-qualified-name="Master Domain .PostgreSQL..TenantInfoRepository" id="ent0009" data-source-line="56"><rect x="5545.313" y="1819.434" width="1009.058" height="403.564" fill="#F8FAFC" style="stroke:#CBD5E1;stroke-width:1.563;" rx="7.813" ry="7.813"/><ellipse cx="5827.412" cy="1886.157" rx="34.375" ry="34.375" fill="#B4A7E5" style="stroke:#181818;stroke-width:3.125;"/><path d="M5830.391,1875.659 L5830.391,1896.46 L5835.762,1896.46 Q5837.666,1896.46 5838.496,1897.192 Q5839.326,1897.925 5839.326,1899.146 Q5839.326,1900.317 5838.496,1901.05 Q5837.666,1901.782 5835.762,1901.782 L5819.698,1901.782 Q5817.793,1901.782 5816.963,1901.05 Q5816.133,1900.317 5816.133,1899.097 Q5816.133,1897.925 5816.963,1897.192 Q5817.793,1896.46 5819.698,1896.46 L5825.069,1896.46 L5825.069,1875.659 L5819.698,1875.659 Q5817.793,1875.659 5816.963,1874.927 Q5816.133,1874.194 5816.133,1872.974 Q5816.133,1871.802 5816.963,1871.069 Q5817.793,1870.337 5819.698,1870.337 L5835.762,1870.337 Q5837.666,1870.337 5838.496,1871.069 Q5839.326,1871.802 5839.326,1872.974 Q5839.326,1874.194 5838.496,1874.927 Q5837.666,1875.659 5835.762,1875.659 L5830.391,1875.659 Z " fill="#000"/><text x="5934.93" y="1873.987" fill="#000" font-size="37.5" textLength="331.384" font-style="italic">«master repository»</text><text x="5891.475" y="1927.643" fill="#000" font-size="43.75" textLength="418.295" font-style="italic">TenantInfoRepository</text><line x1="5548.438" y1="1952.881" x2="6551.245" y2="1952.881" style="stroke:#CBD5E1;stroke-width:1.563;"/><line x1="5548.438" y1="1977.881" x2="6551.245" y2="1977.881" style="stroke:#CBD5E1;stroke-width:1.563;"/><text x="5564.063" y="2035.797" fill="#000" font-size="43.75" textLength="735.654">+existsByCode(code: String): boolean</text><text x="5564.063" y="2090.826" fill="#000" font-size="43.75" textLength="971.558">+existsBySubdomain(subdomain: String): boolean</text><text x="5564.063" y="2145.856" fill="#000" font-size="43.75" textLength="920.544">+saveAndFlush(tenant: TenantInfo): TenantInfo</text><text x="5564.063" y="2200.885" fill="#000" font-size="43.75" textLength="815.997">+findById(id: Long): Optional&lt;TenantInfo></text></g><!--class TenantInfo--><g class="entity" data-qualified-name="Master Domain .PostgreSQL..TenantInfo" id="ent0010" data-source-line="63"><rect x="5957.813" y="2466.309" width="664.932" height="843.799" fill="#F8FAFC" style="stroke:#CBD5E1;stroke-width:1.563;" rx="7.813" ry="7.813"/><ellipse cx="6155.064" cy="2533.032" rx="34.375" ry="34.375" fill="#ADD1B2" style="stroke:#181818;stroke-width:3.125;"/><path d="M6163.707,2520.142 Q6164.195,2519.458 6164.781,2519.116 Q6165.367,2518.774 6166.051,2518.774 Q6167.223,2518.774 6167.955,2519.604 Q6168.687,2520.386 6168.687,2522.29 L6168.687,2526.831 Q6168.687,2528.735 6167.955,2529.565 Q6167.223,2530.396 6166.051,2530.396 Q6164.977,2530.396 6164.342,2529.761 Q6163.707,2529.175 6163.365,2527.563 Q6163.219,2526.44 6162.633,2525.854 Q6161.607,2524.683 6159.703,2523.999 Q6157.799,2523.315 6155.846,2523.315 Q6153.453,2523.315 6151.451,2524.341 Q6149.498,2525.366 6147.935,2527.71 Q6146.422,2530.054 6146.422,2533.276 L6146.422,2536.694 Q6146.422,2540.552 6149.205,2543.14 Q6151.988,2545.679 6156.969,2545.679 Q6159.898,2545.679 6161.949,2544.897 Q6163.17,2544.409 6164.488,2543.042 Q6165.318,2542.212 6165.758,2541.968 Q6166.246,2541.724 6166.881,2541.724 Q6167.906,2541.724 6168.687,2542.554 Q6169.518,2543.335 6169.518,2544.409 Q6169.518,2545.483 6168.443,2546.753 Q6166.881,2548.56 6164.391,2549.585 Q6161.021,2551.001 6156.969,2551.001 Q6152.232,2551.001 6148.473,2549.048 Q6145.396,2547.485 6143.248,2544.165 Q6141.1,2540.796 6141.1,2536.792 L6141.1,2533.179 Q6141.1,2529.028 6143.004,2525.464 Q6144.957,2521.851 6148.375,2519.946 Q6151.793,2517.993 6155.65,2517.993 Q6157.945,2517.993 6159.947,2518.53 Q6161.998,2519.019 6163.707,2520.142 Z " fill="#000"/><text x="6212.877" y="2520.862" fill="#000" font-size="37.5" textLength="256.366" font-style="italic">«master entity»</text><text x="6236.47" y="2574.518" fill="#000" font-size="43.75" textLength="209.18">TenantInfo</text><line x1="5960.938" y1="2599.756" x2="6619.62" y2="2599.756" style="stroke:#CBD5E1;stroke-width:1.563;"/><text x="5976.563" y="2657.672" fill="#000" font-size="43.75" textLength="181.238">+id: Long</text><text x="5976.563" y="2712.701" fill="#000" font-size="43.75" textLength="431.775">+code: String {unique}</text><text x="5976.563" y="2767.731" fill="#000" font-size="43.75" textLength="273.587">+name: String</text><text x="5976.563" y="2822.76" fill="#000" font-size="43.75" textLength="550.934">+subdomain: String {unique}</text><text x="5976.563" y="2877.789" fill="#000" font-size="43.75" textLength="502.271">+dbName: String {unique}</text><text x="5976.563" y="2932.819" fill="#000" font-size="43.75" textLength="268.695">+dbUrl: String</text><text x="5976.563" y="2987.848" fill="#000" font-size="43.75" textLength="414.621">+dbUsername: String</text><text x="5976.563" y="3042.877" fill="#000" font-size="43.75" textLength="627.432">-dbPassword: String {encrypted}</text><text x="5976.563" y="3097.906" fill="#000" font-size="43.75" textLength="575.287">+managedDatabase: boolean</text><text x="5976.563" y="3152.936" fill="#000" font-size="43.75" textLength="280.872">+status: String</text><text x="5976.563" y="3207.965" fill="#000" font-size="43.75" textLength="531.345">+createdAt: LocalDateTime</text><text x="5976.563" y="3262.994" fill="#000" font-size="43.75" textLength="543.564">+updatedAt: LocalDateTime</text><line x1="5960.938" y1="3285.107" x2="6619.62" y2="3285.107" style="stroke:#CBD5E1;stroke-width:1.563;"/></g><!--class TenantStatus--><g class="entity" data-qualified-name="Master Domain .PostgreSQL..TenantStatus" id="ent0011" data-source-line="78"><rect x="6110.938" y="3553.809" width="360.236" height="370.117" fill="#F8FAFC" style="stroke:#CBD5E1;stroke-width:1.563;" rx="7.813" ry="7.813"/><ellipse cx="6157.813" cy="3603.809" rx="34.375" ry="34.375" fill="#EB937F" style="stroke:#181818;stroke-width:3.125;"/><path d="M6154.248,3606.299 L6154.248,3614.111 L6167.773,3614.111 L6167.773,3611.23 Q6167.773,3609.326 6168.506,3608.496 Q6169.287,3607.666 6170.459,3607.666 Q6171.631,3607.666 6172.363,3608.496 Q6173.096,3609.326 6173.096,3611.23 L6173.096,3619.434 L6148.096,3619.434 Q6146.143,3619.434 6145.313,3618.701 Q6144.531,3617.969 6144.531,3616.748 Q6144.531,3615.576 6145.361,3614.844 Q6146.191,3614.111 6148.096,3614.111 L6148.926,3614.111 L6148.926,3593.311 L6148.096,3593.311 Q6146.143,3593.311 6145.313,3592.578 Q6144.531,3591.846 6144.531,3590.625 Q6144.531,3589.453 6145.313,3588.721 Q6146.143,3587.988 6148.096,3587.988 L6171.924,3587.988 L6171.924,3596.094 Q6171.924,3597.998 6171.191,3598.828 Q6170.508,3599.609 6169.287,3599.609 Q6168.115,3599.609 6167.383,3598.828 Q6166.65,3597.998 6166.65,3596.094 L6166.65,3593.311 L6154.248,3593.311 L6154.248,3600.977 L6158.887,3600.977 Q6158.887,3598.926 6159.277,3598.34 Q6160.107,3597.07 6161.572,3597.07 Q6162.744,3597.07 6163.477,3597.9 Q6164.209,3598.682 6164.209,3600.586 L6164.209,3606.738 Q6164.209,3608.447 6163.818,3609.033 Q6162.988,3610.254 6161.572,3610.254 Q6160.107,3610.254 6159.277,3608.984 Q6158.887,3608.398 6158.887,3606.299 L6154.248,3606.299 Z " fill="#000"/><text x="6201.563" y="3621.71" fill="#000" font-size="43.75" textLength="260.236">TenantStatus</text><line x1="6114.063" y1="3653.809" x2="6468.048" y2="3653.809" style="stroke:#CBD5E1;stroke-width:1.563;"/><text x="6129.688" y="3711.725" fill="#000" font-size="43.75" textLength="320.883">PROVISIONING</text><text x="6129.688" y="3766.754" fill="#000" font-size="43.75" textLength="158.017">ACTIVE</text><text x="6129.688" y="3821.783" fill="#000" font-size="43.75" textLength="153.168">FAILED</text><text x="6129.688" y="3876.813" fill="#000" font-size="43.75" textLength="272.284">SUSPENDED</text><line x1="6114.063" y1="3898.926" x2="6468.048" y2="3898.926" style="stroke:#CBD5E1;stroke-width:1.563;"/></g><!--class TenantProvisioningService--><g class="entity" data-qualified-name="Provisioning . Infrastructure.TenantProvisioningService" id="ent0015" data-source-line="90"><rect x="3096.875" y="1845.996" width="1474.713" height="348.535" fill="#F8FAFC" style="stroke:#CBD5E1;stroke-width:1.563;" rx="7.813" ry="7.813"/><ellipse cx="3560.747" cy="1912.72" rx="34.375" ry="34.375" fill="#ADD1B2" style="stroke:#181818;stroke-width:3.125;"/><path d="M3569.389,1899.829 Q3569.878,1899.146 3570.464,1898.804 Q3571.049,1898.462 3571.733,1898.462 Q3572.905,1898.462 3573.637,1899.292 Q3574.37,1900.073 3574.37,1901.978 L3574.37,1906.519 Q3574.37,1908.423 3573.637,1909.253 Q3572.905,1910.083 3571.733,1910.083 Q3570.659,1910.083 3570.024,1909.448 Q3569.389,1908.862 3569.048,1907.251 Q3568.901,1906.128 3568.315,1905.542 Q3567.29,1904.37 3565.385,1903.687 Q3563.481,1903.003 3561.528,1903.003 Q3559.135,1903.003 3557.133,1904.028 Q3555.18,1905.054 3553.618,1907.397 Q3552.104,1909.741 3552.104,1912.964 L3552.104,1916.382 Q3552.104,1920.239 3554.887,1922.827 Q3557.671,1925.366 3562.651,1925.366 Q3565.581,1925.366 3567.632,1924.585 Q3568.852,1924.097 3570.171,1922.729 Q3571.001,1921.899 3571.44,1921.655 Q3571.928,1921.411 3572.563,1921.411 Q3573.589,1921.411 3574.37,1922.241 Q3575.2,1923.022 3575.2,1924.097 Q3575.2,1925.171 3574.126,1926.44 Q3572.563,1928.247 3570.073,1929.272 Q3566.704,1930.688 3562.651,1930.688 Q3557.915,1930.688 3554.155,1928.735 Q3551.079,1927.173 3548.93,1923.853 Q3546.782,1920.483 3546.782,1916.479 L3546.782,1912.866 Q3546.782,1908.716 3548.686,1905.151 Q3550.639,1901.538 3554.057,1899.634 Q3557.475,1897.681 3561.333,1897.681 Q3563.628,1897.681 3565.63,1898.218 Q3567.68,1898.706 3569.389,1899.829 Z " fill="#000"/><text x="3699.5" y="1900.549" fill="#000" font-size="37.5" textLength="371.027" font-style="italic">«provisioning service»</text><text x="3624.809" y="1954.205" fill="#000" font-size="43.75" textLength="520.407">TenantProvisioningService</text><line x1="3100" y1="1979.443" x2="4568.463" y2="1979.443" style="stroke:#CBD5E1;stroke-width:1.563;"/><line x1="3100" y1="2004.443" x2="4568.463" y2="2004.443" style="stroke:#CBD5E1;stroke-width:1.563;"/><text x="3115.625" y="2062.36" fill="#000" font-size="43.75" textLength="1209.897">+provision(id: Long, admin: TenantAdminRequest): TenantInfo</text><text x="3115.625" y="2117.389" fill="#000" font-size="43.75" textLength="982.495">-createDatabaseAndUser(tenant: TenantInfo): void</text><text x="3115.625" y="2172.418" fill="#000" font-size="43.75" textLength="1437.213">-seedAdmin(dataSource: DataSource, admin: TenantAdminRequest): void</text></g><!--class TenantCredentialService--><g class="entity" data-qualified-name="Provisioning . Infrastructure.TenantCredentialService" id="ent0016" data-source-line="96"><rect x="4176.563" y="2741.309" width="1091.666" height="293.506" fill="#F8FAFC" style="stroke:#CBD5E1;stroke-width:1.563;" rx="7.813" ry="7.813"/><ellipse cx="4468.361" cy="2808.032" rx="34.375" ry="34.375" fill="#ADD1B2" style="stroke:#181818;stroke-width:3.125;"/><path d="M4477.003,2795.142 Q4477.492,2794.458 4478.078,2794.116 Q4478.664,2793.774 4479.347,2793.774 Q4480.519,2793.774 4481.252,2794.604 Q4481.984,2795.386 4481.984,2797.29 L4481.984,2801.831 Q4481.984,2803.735 4481.252,2804.565 Q4480.519,2805.396 4479.347,2805.396 Q4478.273,2805.396 4477.638,2804.761 Q4477.003,2804.175 4476.662,2802.563 Q4476.515,2801.44 4475.929,2800.854 Q4474.904,2799.683 4473,2798.999 Q4471.095,2798.315 4469.142,2798.315 Q4466.75,2798.315 4464.748,2799.341 Q4462.794,2800.366 4461.232,2802.71 Q4459.718,2805.054 4459.718,2808.276 L4459.718,2811.694 Q4459.718,2815.552 4462.502,2818.14 Q4465.285,2820.679 4470.265,2820.679 Q4473.195,2820.679 4475.246,2819.897 Q4476.466,2819.409 4477.785,2818.042 Q4478.615,2817.212 4479.054,2816.968 Q4479.543,2816.724 4480.177,2816.724 Q4481.203,2816.724 4481.984,2817.554 Q4482.814,2818.335 4482.814,2819.409 Q4482.814,2820.483 4481.74,2821.753 Q4480.177,2823.56 4477.687,2824.585 Q4474.318,2826.001 4470.265,2826.001 Q4465.529,2826.001 4461.769,2824.048 Q4458.693,2822.485 4456.544,2819.165 Q4454.396,2815.796 4454.396,2811.792 L4454.396,2808.179 Q4454.396,2804.028 4456.3,2800.464 Q4458.253,2796.851 4461.671,2794.946 Q4465.089,2792.993 4468.947,2792.993 Q4471.242,2792.993 4473.244,2793.53 Q4475.294,2794.019 4477.003,2795.142 Z " fill="#000"/><text x="4623.122" y="2795.862" fill="#000" font-size="37.5" textLength="300.11" font-style="italic">«security service»</text><text x="4532.423" y="2849.518" fill="#000" font-size="43.75" textLength="481.506">TenantCredentialService</text><line x1="4179.688" y1="2874.756" x2="5265.103" y2="2874.756" style="stroke:#CBD5E1;stroke-width:1.563;"/><line x1="4179.688" y1="2899.756" x2="5265.103" y2="2899.756" style="stroke:#CBD5E1;stroke-width:1.563;"/><text x="4195.313" y="2957.672" fill="#000" font-size="43.75" textLength="1051.73">+encrypt(tenantCode: String, password: String): String</text><text x="4195.313" y="3012.701" fill="#000" font-size="43.75" textLength="1054.166">+decrypt(tenantCode: String, ciphertext: String): String</text></g><!--class TenantDataSourceFactory--><g class="entity" data-qualified-name="Provisioning . Infrastructure.TenantDataSourceFactory" id="ent0017" data-source-line="101"><rect x="2303.125" y="2741.309" width="936.063" height="293.506" fill="#F8FAFC" style="stroke:#CBD5E1;stroke-width:1.563;" rx="7.813" ry="7.813"/><ellipse cx="2501.324" cy="2808.032" rx="34.375" ry="34.375" fill="#ADD1B2" style="stroke:#181818;stroke-width:3.125;"/><path d="M2509.967,2795.142 Q2510.455,2794.458 2511.041,2794.116 Q2511.627,2793.774 2512.311,2793.774 Q2513.483,2793.774 2514.215,2794.604 Q2514.948,2795.386 2514.948,2797.29 L2514.948,2801.831 Q2514.948,2803.735 2514.215,2804.565 Q2513.483,2805.396 2512.311,2805.396 Q2511.237,2805.396 2510.602,2804.761 Q2509.967,2804.175 2509.625,2802.563 Q2509.479,2801.44 2508.893,2800.854 Q2507.867,2799.683 2505.963,2798.999 Q2504.059,2798.315 2502.106,2798.315 Q2499.713,2798.315 2497.711,2799.341 Q2495.758,2800.366 2494.196,2802.71 Q2492.682,2805.054 2492.682,2808.276 L2492.682,2811.694 Q2492.682,2815.552 2495.465,2818.14 Q2498.248,2820.679 2503.229,2820.679 Q2506.158,2820.679 2508.209,2819.897 Q2509.43,2819.409 2510.748,2818.042 Q2511.578,2817.212 2512.018,2816.968 Q2512.506,2816.724 2513.141,2816.724 Q2514.166,2816.724 2514.948,2817.554 Q2515.778,2818.335 2515.778,2819.409 Q2515.778,2820.483 2514.703,2821.753 Q2513.141,2823.56 2510.651,2824.585 Q2507.281,2826.001 2503.229,2826.001 Q2498.492,2826.001 2494.733,2824.048 Q2491.656,2822.485 2489.508,2819.165 Q2487.36,2815.796 2487.36,2811.792 L2487.36,2808.179 Q2487.36,2804.028 2489.264,2800.464 Q2491.217,2796.851 2494.635,2794.946 Q2498.053,2792.993 2501.91,2792.993 Q2504.205,2792.993 2506.207,2793.53 Q2508.258,2794.019 2509.967,2795.142 Z " fill="#000"/><text x="2630.19" y="2795.862" fill="#000" font-size="37.5" textLength="383.496" font-style="italic">«infrastructure factory»</text><text x="2565.387" y="2849.518" fill="#000" font-size="43.75" textLength="513.101">TenantDataSourceFactory</text><line x1="2306.25" y1="2874.756" x2="3236.063" y2="2874.756" style="stroke:#CBD5E1;stroke-width:1.563;"/><line x1="2306.25" y1="2899.756" x2="3236.063" y2="2899.756" style="stroke:#CBD5E1;stroke-width:1.563;"/><text x="2321.875" y="2957.672" fill="#000" font-size="43.75" textLength="898.563">+create(tenant: TenantInfo): HikariDataSource</text><text x="2321.875" y="3012.701" fill="#000" font-size="43.75" textLength="896.063">+migrate(dataSource: HikariDataSource): void</text></g><!--class MasterDB--><g class="entity" data-qualified-name="Provisioning . Infrastructure.MasterDB" id="ent0018" data-source-line="106"><rect x="2501.563" y="1902.246" width="484.18" height="238.477" fill="#F8FAFC" style="stroke:#CBD5E1;stroke-width:1.563;" rx="7.813" ry="7.813"/><ellipse cx="2548.438" cy="1996.484" rx="34.375" ry="34.375" fill="#ADD1B2" style="stroke:#181818;stroke-width:3.125;"/><path d="M2557.08,1983.594 Q2557.568,1982.91 2558.154,1982.568 Q2558.74,1982.227 2559.424,1982.227 Q2560.596,1982.227 2561.328,1983.057 Q2562.061,1983.838 2562.061,1985.742 L2562.061,1990.283 Q2562.061,1992.188 2561.328,1993.018 Q2560.596,1993.848 2559.424,1993.848 Q2558.35,1993.848 2557.715,1993.213 Q2557.08,1992.627 2556.738,1991.016 Q2556.592,1989.893 2556.006,1989.307 Q2554.98,1988.135 2553.076,1987.451 Q2551.172,1986.768 2549.219,1986.768 Q2546.826,1986.768 2544.824,1987.793 Q2542.871,1988.818 2541.309,1991.162 Q2539.795,1993.506 2539.795,1996.729 L2539.795,2000.146 Q2539.795,2004.004 2542.578,2006.592 Q2545.361,2009.131 2550.342,2009.131 Q2553.271,2009.131 2555.322,2008.35 Q2556.543,2007.861 2557.861,2006.494 Q2558.691,2005.664 2559.131,2005.42 Q2559.619,2005.176 2560.254,2005.176 Q2561.279,2005.176 2562.061,2006.006 Q2562.891,2006.787 2562.891,2007.861 Q2562.891,2008.936 2561.816,2010.205 Q2560.254,2012.012 2557.764,2013.037 Q2554.395,2014.453 2550.342,2014.453 Q2545.605,2014.453 2541.846,2012.5 Q2538.77,2010.938 2536.621,2007.617 Q2534.473,2004.248 2534.473,2000.244 L2534.473,1996.631 Q2534.473,1992.48 2536.377,1988.916 Q2538.33,1985.303 2541.748,1983.398 Q2545.166,1981.445 2549.023,1981.445 Q2551.318,1981.445 2553.32,1981.982 Q2555.371,1982.471 2557.08,1983.594 Z " fill="#000"/><text x="2686.27" y="1956.799" fill="#000" font-size="37.5" textLength="196.014" font-style="italic">«database»</text><text x="2592.188" y="2010.455" fill="#000" font-size="43.75" textLength="384.18">Master PostgreSQL</text><text x="2638.362" y="2065.485" fill="#000" font-size="43.75" textLength="291.83">(table: tenants)</text><line x1="2504.688" y1="2090.723" x2="2982.617" y2="2090.723" style="stroke:#CBD5E1;stroke-width:1.563;"/><line x1="2504.688" y1="2115.723" x2="2982.617" y2="2115.723" style="stroke:#CBD5E1;stroke-width:1.563;"/></g><!--class TenantDB--><g class="entity" data-qualified-name="Provisioning . Infrastructure.TenantDB" id="ent0019" data-source-line="107"><rect x="2926.563" y="4172.559" width="692.142" height="238.477" fill="#F8FAFC" style="stroke:#CBD5E1;stroke-width:1.563;" rx="7.813" ry="7.813"/><ellipse cx="2973.438" cy="4266.797" rx="34.375" ry="34.375" fill="#ADD1B2" style="stroke:#181818;stroke-width:3.125;"/><path d="M2982.08,4253.906 Q2982.568,4253.223 2983.154,4252.881 Q2983.74,4252.539 2984.424,4252.539 Q2985.596,4252.539 2986.328,4253.369 Q2987.061,4254.15 2987.061,4256.055 L2987.061,4260.596 Q2987.061,4262.5 2986.328,4263.33 Q2985.596,4264.16 2984.424,4264.16 Q2983.35,4264.16 2982.715,4263.525 Q2982.08,4262.939 2981.738,4261.328 Q2981.592,4260.205 2981.006,4259.619 Q2979.98,4258.447 2978.076,4257.764 Q2976.172,4257.08 2974.219,4257.08 Q2971.826,4257.08 2969.824,4258.105 Q2967.871,4259.131 2966.309,4261.475 Q2964.795,4263.818 2964.795,4267.041 L2964.795,4270.459 Q2964.795,4274.316 2967.578,4276.904 Q2970.361,4279.443 2975.342,4279.443 Q2978.271,4279.443 2980.322,4278.662 Q2981.543,4278.174 2982.861,4276.807 Q2983.691,4275.977 2984.131,4275.732 Q2984.619,4275.488 2985.254,4275.488 Q2986.279,4275.488 2987.061,4276.318 Q2987.891,4277.1 2987.891,4278.174 Q2987.891,4279.248 2986.816,4280.518 Q2985.254,4282.324 2982.764,4283.35 Q2979.395,4284.766 2975.342,4284.766 Q2970.605,4284.766 2966.846,4282.813 Q2963.77,4281.25 2961.621,4277.93 Q2959.473,4274.561 2959.473,4270.557 L2959.473,4266.943 Q2959.473,4262.793 2961.377,4259.229 Q2963.33,4255.615 2966.748,4253.711 Q2970.166,4251.758 2974.023,4251.758 Q2976.318,4251.758 2978.32,4252.295 Q2980.371,4252.783 2982.08,4253.906 Z " fill="#000"/><text x="3215.251" y="4227.112" fill="#000" font-size="37.5" textLength="196.014" font-style="italic">«database»</text><text x="3061.568" y="4280.768" fill="#000" font-size="43.75" textLength="503.381">Dedicated Tenant MySQL</text><text x="3017.188" y="4335.797" fill="#000" font-size="43.75" textLength="592.142">(table: users + tenant schema)</text><line x1="2929.688" y1="4361.035" x2="3615.579" y2="4361.035" style="stroke:#CBD5E1;stroke-width:1.563;"/><line x1="2929.688" y1="4386.035" x2="3615.579" y2="4386.035" style="stroke:#CBD5E1;stroke-width:1.563;"/></g><!--class Flyway--><g class="entity" data-qualified-name="Provisioning . Infrastructure.Flyway" id="ent0020" data-source-line="108"><rect x="2610.938" y="3645.996" width="583.878" height="183.447" fill="#F8FAFC" style="stroke:#CBD5E1;stroke-width:1.563;" rx="7.813" ry="7.813"/><ellipse cx="2657.813" cy="3712.72" rx="34.375" ry="34.375" fill="#ADD1B2" style="stroke:#181818;stroke-width:3.125;"/><path d="M2666.455,3699.829 Q2666.943,3699.146 2667.529,3698.804 Q2668.115,3698.462 2668.799,3698.462 Q2669.971,3698.462 2670.703,3699.292 Q2671.436,3700.073 2671.436,3701.978 L2671.436,3706.519 Q2671.436,3708.423 2670.703,3709.253 Q2669.971,3710.083 2668.799,3710.083 Q2667.725,3710.083 2667.09,3709.448 Q2666.455,3708.862 2666.113,3707.251 Q2665.967,3706.128 2665.381,3705.542 Q2664.355,3704.37 2662.451,3703.687 Q2660.547,3703.003 2658.594,3703.003 Q2656.201,3703.003 2654.199,3704.028 Q2652.246,3705.054 2650.684,3707.397 Q2649.17,3709.741 2649.17,3712.964 L2649.17,3716.382 Q2649.17,3720.239 2651.953,3722.827 Q2654.736,3725.366 2659.717,3725.366 Q2662.646,3725.366 2664.697,3724.585 Q2665.918,3724.097 2667.236,3722.729 Q2668.066,3721.899 2668.506,3721.655 Q2668.994,3721.411 2669.629,3721.411 Q2670.654,3721.411 2671.436,3722.241 Q2672.266,3723.022 2672.266,3724.097 Q2672.266,3725.171 2671.191,3726.44 Q2669.629,3728.247 2667.139,3729.272 Q2663.77,3730.688 2659.717,3730.688 Q2654.98,3730.688 2651.221,3728.735 Q2648.145,3727.173 2645.996,3723.853 Q2643.848,3720.483 2643.848,3716.479 L2643.848,3712.866 Q2643.848,3708.716 2645.752,3705.151 Q2647.705,3701.538 2651.123,3699.634 Q2654.541,3697.681 2658.398,3697.681 Q2660.693,3697.681 2662.695,3698.218 Q2664.746,3698.706 2666.455,3699.829 Z " fill="#000"/><text x="2813.231" y="3700.549" fill="#000" font-size="37.5" textLength="260.541" font-style="italic">«infrastructure»</text><text x="2701.563" y="3754.205" fill="#000" font-size="43.75" textLength="483.878">Flyway tenant migrations</text><line x1="2614.063" y1="3779.443" x2="3191.69" y2="3779.443" style="stroke:#CBD5E1;stroke-width:1.563;"/><line x1="2614.063" y1="3804.443" x2="3191.69" y2="3804.443" style="stroke:#CBD5E1;stroke-width:1.563;"/></g><!--class BCrypt--><g class="entity" data-qualified-name="Provisioning . Infrastructure.BCrypt" id="ent0021" data-source-line="109"><rect x="3465.625" y="2795.996" width="600.903" height="183.447" fill="#F8FAFC" style="stroke:#CBD5E1;stroke-width:1.563;" rx="7.813" ry="7.813"/><ellipse cx="3512.5" cy="2862.72" rx="34.375" ry="34.375" fill="#ADD1B2" style="stroke:#181818;stroke-width:3.125;"/><path d="M3521.143,2849.829 Q3521.631,2849.146 3522.217,2848.804 Q3522.803,2848.462 3523.486,2848.462 Q3524.658,2848.462 3525.391,2849.292 Q3526.123,2850.073 3526.123,2851.978 L3526.123,2856.519 Q3526.123,2858.423 3525.391,2859.253 Q3524.658,2860.083 3523.486,2860.083 Q3522.412,2860.083 3521.777,2859.448 Q3521.143,2858.862 3520.801,2857.251 Q3520.654,2856.128 3520.068,2855.542 Q3519.043,2854.37 3517.139,2853.687 Q3515.234,2853.003 3513.281,2853.003 Q3510.889,2853.003 3508.887,2854.028 Q3506.934,2855.054 3505.371,2857.397 Q3503.857,2859.741 3503.857,2862.964 L3503.857,2866.382 Q3503.857,2870.239 3506.641,2872.827 Q3509.424,2875.366 3514.404,2875.366 Q3517.334,2875.366 3519.385,2874.585 Q3520.605,2874.097 3521.924,2872.729 Q3522.754,2871.899 3523.193,2871.655 Q3523.682,2871.411 3524.316,2871.411 Q3525.342,2871.411 3526.123,2872.241 Q3526.953,2873.022 3526.953,2874.097 Q3526.953,2875.171 3525.879,2876.44 Q3524.316,2878.247 3521.826,2879.272 Q3518.457,2880.688 3514.404,2880.688 Q3509.668,2880.688 3505.908,2878.735 Q3502.832,2877.173 3500.684,2873.853 Q3498.535,2870.483 3498.535,2866.479 L3498.535,2862.866 Q3498.535,2858.716 3500.439,2855.151 Q3502.393,2851.538 3505.811,2849.634 Q3509.229,2847.681 3513.086,2847.681 Q3515.381,2847.681 3517.383,2848.218 Q3519.434,2848.706 3521.143,2849.829 Z " fill="#000"/><text x="3623.267" y="2850.549" fill="#000" font-size="37.5" textLength="366.87" font-style="italic">«security component»</text><text x="3556.25" y="2904.205" fill="#000" font-size="43.75" textLength="500.903">BCrypt PasswordEncoder</text><line x1="3468.75" y1="2929.443" x2="4063.403" y2="2929.443" style="stroke:#CBD5E1;stroke-width:1.563;"/><line x1="3468.75" y1="2954.443" x2="4063.403" y2="2954.443" style="stroke:#CBD5E1;stroke-width:1.563;"/></g><!--class TenantAdmin--><g class="entity" data-qualified-name="Tenant Domain .dedicated database..TenantAdmin" id="ent0023" data-source-line="113"><rect x="3610.938" y="4791.309" width="664.761" height="513.623" fill="#F8FAFC" style="stroke:#CBD5E1;stroke-width:1.563;" rx="7.813" ry="7.813"/><ellipse cx="3776.82" cy="4858.032" rx="34.375" ry="34.375" fill="#ADD1B2" style="stroke:#181818;stroke-width:3.125;"/><path d="M3785.463,4845.142 Q3785.951,4844.458 3786.537,4844.116 Q3787.123,4843.774 3787.807,4843.774 Q3788.979,4843.774 3789.711,4844.604 Q3790.443,4845.386 3790.443,4847.29 L3790.443,4851.831 Q3790.443,4853.735 3789.711,4854.565 Q3788.979,4855.396 3787.807,4855.396 Q3786.732,4855.396 3786.098,4854.761 Q3785.463,4854.175 3785.121,4852.563 Q3784.975,4851.44 3784.389,4850.854 Q3783.363,4849.683 3781.459,4848.999 Q3779.555,4848.315 3777.602,4848.315 Q3775.209,4848.315 3773.207,4849.341 Q3771.254,4850.366 3769.691,4852.71 Q3768.178,4855.054 3768.178,4858.276 L3768.178,4861.694 Q3768.178,4865.552 3770.961,4868.14 Q3773.744,4870.679 3778.725,4870.679 Q3781.654,4870.679 3783.705,4869.897 Q3784.926,4869.409 3786.244,4868.042 Q3787.074,4867.212 3787.514,4866.968 Q3788.002,4866.724 3788.637,4866.724 Q3789.662,4866.724 3790.443,4867.554 Q3791.273,4868.335 3791.273,4869.409 Q3791.273,4870.483 3790.199,4871.753 Q3788.637,4873.56 3786.147,4874.585 Q3782.777,4876.001 3778.725,4876.001 Q3773.988,4876.001 3770.229,4874.048 Q3767.152,4872.485 3765.004,4869.165 Q3762.856,4865.796 3762.856,4861.792 L3762.856,4858.179 Q3762.856,4854.028 3764.76,4850.464 Q3766.713,4846.851 3770.131,4844.946 Q3773.549,4842.993 3777.406,4842.993 Q3779.701,4842.993 3781.703,4843.53 Q3783.754,4844.019 3785.463,4845.142 Z " fill="#000"/><text x="3834.633" y="4845.862" fill="#000" font-size="37.5" textLength="318.933" font-style="italic">«tenant users row»</text><text x="3863.992" y="4899.518" fill="#000" font-size="43.75" textLength="260.214">TenantAdmin</text><line x1="3614.063" y1="4924.756" x2="4272.574" y2="4924.756" style="stroke:#CBD5E1;stroke-width:1.563;"/><text x="3629.688" y="4982.672" fill="#000" font-size="43.75" textLength="181.238">+id: Long</text><text x="3629.688" y="5037.701" fill="#000" font-size="43.75" textLength="441.452">+email: String {unique}</text><text x="3629.688" y="5092.731" fill="#000" font-size="43.75" textLength="453.522">+passwordHash: String</text><text x="3629.688" y="5147.76" fill="#000" font-size="43.75" textLength="336.777">+fullName: String</text><text x="3629.688" y="5202.789" fill="#000" font-size="43.75" textLength="627.261">+role: String = TENANT_ADMIN</text><text x="3629.688" y="5257.819" fill="#000" font-size="43.75" textLength="488.748">+status: String = ACTIVE</text><line x1="3614.063" y1="5279.932" x2="4272.574" y2="5279.932" style="stroke:#CBD5E1;stroke-width:1.563;"/></g><g class="entity" data-qualified-name="GMN39" id="ent0040" data-source-line="140"><path d="M6807.813,2795.996 L6807.813,2875.684 L6624.187,2888.184 L6807.813,2900.684 L6807.813,2980.542 A0,0 0 0 0 6807.813,2980.542 L7943.732,2980.542 A0,0 0 0 0 7943.732,2980.542 L7943.732,2827.246 L7912.482,2795.996 L6807.813,2795.996 A0,0 0 0 0 6807.813,2795.996" style="stroke:#FDBA74;stroke-width:1.563;" fill="#FFF7ED"/><path d="M7912.482,2795.996 L7912.482,2827.246 L7943.732,2827.246 L7912.482,2795.996" style="stroke:#FDBA74;stroke-width:1.563;" fill="#FFF7ED"/><text x="6826.563" y="2853.793" fill="#000" font-size="40.625" textLength="742.953">Master-owned connection metadata only.</text><text x="6826.563" y="2904.892" fill="#000" font-size="40.625" textLength="1070.294">dbPassword uses AES-256-GCM with tenant code as AAD.</text><text x="6826.563" y="2955.991" fill="#000" font-size="40.625" textLength="1065.811">API responses exclude DB URL, username, and password.</text></g><g class="entity" data-qualified-name="GMN42" id="ent0043" data-source-line="146"><path d="M2468.75,4955.371 L2468.75,5139.917 A0,0 0 0 0 2468.75,5139.917 L3498.643,5139.917 A0,0 0 0 0 3498.643,5139.917 L3498.643,4986.621 L3467.393,4955.371 L3031.219,4955.371 L3227.281,4410.809 L3006.219,4955.371 L2468.75,4955.371 A0,0 0 0 0 2468.75,4955.371" style="stroke:#FDBA74;stroke-width:1.563;" fill="#FFF7ED"/><path d="M3467.393,4955.371 L3467.393,4986.621 L3498.643,4986.621 L3467.393,4955.371" style="stroke:#FDBA74;stroke-width:1.563;" fill="#FFF7ED"/><text x="2487.5" y="5013.168" fill="#000" font-size="40.625" textLength="964.268">One physically separate MySQL database per tenant.</text><text x="2487.5" y="5064.267" fill="#000" font-size="40.625" textLength="914.499">There is no foreign key or shared ACID transaction</text><text x="2487.5" y="5115.366" fill="#000" font-size="40.625" textLength="896.468">between Master PostgreSQL and Tenant MySQL.</text></g><g class="entity" data-qualified-name="GMN45" id="ent0046" data-source-line="152"><path d="M857.813,2820.996 L857.813,2954.443 L2192.453,2954.443 L2192.453,2852.246 L2161.203,2820.996 L857.813,2820.996" style="stroke:#FDBA74;stroke-width:1.563;" fill="#FFF7ED"/><path d="M2161.203,2820.996 L2161.203,2852.246 L2192.453,2852.246 L2161.203,2820.996" style="stroke:#FDBA74;stroke-width:3.125;" fill="#FFF7ED"/><text x="876.563" y="2878.793" fill="#000" font-size="40.625" textLength="1269.016">A PostgreSQL session advisory lock serializes provisioning per tenant.</text><text x="876.563" y="2929.892" fill="#000" font-size="40.625" textLength="1031.95">Partial tenant resources are retained for idempotent retry.</text></g><!--link OnboardTenantRequest to TenantAdminRequest--><g class="link" data-entity-1="ent0003" data-entity-2="ent0004" id="lnk6" data-source-line="45" data-link-type="extension"><path d="M634.375,1443.84 C634.375,1574.121 634.375,1673.09 634.375,1789.277" style="stroke:#64748B;stroke-width:3.125;" fill="none" id="OnboardTenantRequest-to-TenantAdminRequest" codeLine="45"/><polygon points="634.375,1845.527,653.125,1789.277,615.625,1789.277,634.375,1845.527" fill="none" style="stroke:#64748B;stroke-width:3.125;stroke-linejoin:miter;stroke-miterlimit:10;"/></g><!--link TenantInfo to TenantStatus--><g class="link" data-entity-1="ent0010" data-entity-2="ent0011" id="lnk12" data-source-line="85" data-link-type="dependency"><path d="M6290.625,3310.715 C6290.625,3395.902 6290.625,3465.621 6290.625,3537.184" style="stroke:#64748B;stroke-width:3.125;" fill="none" id="TenantInfo-to-TenantStatus" codeLine="85"/><polygon points="6290.625,3552.809,6303.125,3524.684,6290.625,3537.184,6278.125,3524.684,6290.625,3552.809" fill="#64748B" style="stroke:#64748B;stroke-width:3.125;stroke-linejoin:miter;stroke-miterlimit:10;"/><text x="6293.75" y="3449.106" fill="#000" font-size="40.625" textLength="108.386">status</text></g><!--link TenantInfoRepository to TenantInfo--><g class="link" data-entity-1="ent0009" data-entity-2="ent0010" id="lnk13" data-source-line="86" data-link-type="dependency"><path d="M6105.5,2222.715 C6125.844,2295.465 6145.483,2365.76 6169.17,2450.541" style="stroke:#64748B;stroke-width:3.125;" fill="none" id="TenantInfoRepository-to-TenantInfo" codeLine="86"/><polygon points="6173.375,2465.59,6177.846,2435.139,6169.17,2450.541,6153.768,2441.866,6173.375,2465.59" fill="#64748B" style="stroke:#64748B;stroke-width:3.125;stroke-linejoin:miter;stroke-miterlimit:10;"/><text x="6143.75" y="2361.606" fill="#000" font-size="40.625" textLength="139.966">persists</text><text x="6088.556" y="2289.72" fill="#000" font-size="40.625">1</text><text x="6105.572" y="2431.916" fill="#000" font-size="40.625" textLength="60.977">0..*</text></g><!--link MasterTenantController to OnboardTenantRequest--><g class="link" data-entity-1="ent0002" data-entity-2="ent0003" id="lnk24" data-source-line="123" data-link-type="dependency"><path d="M1021,611.309 C962.125,698.496 888.186,807.893 814.405,917.081" style="stroke:#64748B;stroke-width:3.125;" fill="none" id="MasterTenantController-to-OnboardTenantRequest" codeLine="123"/><polygon points="805.656,930.027,831.76,913.722,814.405,917.081,811.046,899.725,805.656,930.027" fill="#64748B" style="stroke:#64748B;stroke-width:3.125;stroke-linejoin:miter;stroke-miterlimit:10;"/><text x="953.125" y="749.106" fill="#000" font-size="40.625" textLength="160.338">validates</text></g><!--link MasterTenantController to MasterTenantService--><g class="link" data-entity-1="ent0002" data-entity-2="ent0008" id="lnk25" data-source-line="124" data-link-type="dependency"><path d="M1935.5,610.152 C2925.313,747.246 4536.491,970.415 5427.429,1093.79" style="stroke:#64748B;stroke-width:3.125;" fill="none" id="MasterTenantController-to-MasterTenantService" codeLine="124"/><polygon points="5442.906,1095.934,5416.762,1079.694,5427.429,1093.79,5413.332,1104.458,5442.906,1095.934" fill="#64748B" style="stroke:#64748B;stroke-width:3.125;stroke-linejoin:miter;stroke-miterlimit:10;"/></g><!--link MasterTenantController to TenantResponse--><g class="link" data-entity-1="ent0002" data-entity-2="ent0005" id="lnk26" data-source-line="125" data-link-type="dependency"><path d="M1154.063,611.309 C1190.844,690.809 1234.562,785.379 1281.468,886.723" style="stroke:#64748B;stroke-width:3.125;stroke-dasharray:21.875,21.875;" fill="none" id="MasterTenantController-to-TenantResponse" codeLine="125"/><polygon points="1288.031,900.902,1287.562,870.128,1281.468,886.723,1264.874,880.629,1288.031,900.902" fill="#64748B" style="stroke:#64748B;stroke-width:3.125;stroke-linejoin:miter;stroke-miterlimit:10;"/><text x="1225" y="749.106" fill="#000" font-size="40.625" textLength="277.75">maps response</text></g><!--link MasterTenantService to TenantInfoRepository--><g class="link" data-entity-1="ent0008" data-entity-2="ent0009" id="lnk27" data-source-line="126" data-link-type="dependency"><path d="M6068.969,1389.152 C6065.063,1519.34 6060.41,1673.034 6056.473,1803.128" style="stroke:#64748B;stroke-width:3.125;" fill="none" id="MasterTenantService-to-TenantInfoRepository" codeLine="126"/><polygon points="6056,1818.746,6069.345,1791.012,6056.473,1803.128,6044.357,1790.256,6056,1818.746" fill="#64748B" style="stroke:#64748B;stroke-width:3.125;stroke-linejoin:miter;stroke-miterlimit:10;"/></g><!--link MasterTenantService to TenantCredentialService--><g class="link" data-entity-1="ent0008" data-entity-2="ent0016" id="lnk28" data-source-line="127" data-link-type="dependency"><path d="M5443.719,1379.652 C5307.875,1445.527 5175.906,1532.402 5078.125,1645.996 C4934.844,1812.434 4804.754,2436.514 4750.504,2725.92" style="stroke:#64748B;stroke-width:3.125;" fill="none" id="MasterTenantService-to-TenantCredentialService" codeLine="127"/><polygon points="4747.625,2741.277,4765.093,2715.937,4750.504,2725.92,4740.521,2711.331,4747.625,2741.277" fill="#64748B" style="stroke:#64748B;stroke-width:3.125;stroke-linejoin:miter;stroke-miterlimit:10;"/><text x="5081.25" y="2038.168" fill="#000" font-size="40.625" textLength="406.409">encrypts DB password</text></g><!--link MasterTenantService to TenantProvisioningService--><g class="link" data-entity-1="ent0008" data-entity-2="ent0015" id="lnk29" data-source-line="128" data-link-type="dependency"><path d="M5442.844,1263.121 C4970.5,1327.215 4371.844,1430.902 4162.5,1564.746 C4056.531,1632.496 3981.595,1734.103 3925.72,1831.384" style="stroke:#64748B;stroke-width:3.125;" fill="none" id="MasterTenantService-to-TenantProvisioningService" codeLine="128"/><polygon points="3917.938,1844.934,3942.785,1826.771,3925.72,1831.384,3921.106,1814.319,3917.938,1844.934" fill="#64748B" style="stroke:#64748B;stroke-width:3.125;stroke-linejoin:miter;stroke-miterlimit:10;"/><text x="4165.625" y="1610.043" fill="#000" font-size="40.625" textLength="487.718">provisions after registration</text></g><!--link TenantProvisioningService to TenantInfoRepository--><g class="link" data-entity-1="ent0015" data-entity-2="ent0009" id="lnk30" data-source-line="129" data-link-type="dependency"><path d="M4169.969,1845.746 C4470.531,1710.902 4923.531,1562.09 5318.75,1655.371 C5459.656,1688.621 5590.602,1746.056 5713.695,1811.993" style="stroke:#64748B;stroke-width:3.125;" fill="none" id="TenantProvisioningService-to-TenantInfoRepository" codeLine="129"/><polygon points="5727.469,1819.371,5708.579,1795.072,5713.695,1811.993,5696.774,1817.109,5727.469,1819.371" fill="#64748B" style="stroke:#64748B;stroke-width:3.125;stroke-linejoin:miter;stroke-miterlimit:10;"/><text x="4684.375" y="1610.043" fill="#000" font-size="40.625" textLength="264.241">updates status</text></g><!--link TenantProvisioningService to TenantCredentialService--><g class="link" data-entity-1="ent0015" data-entity-2="ent0016" id="lnk31" data-source-line="130" data-link-type="dependency"><path d="M4128.469,2196.246 C4181.688,2232.902 4234.938,2273.559 4281.25,2316.309 C4419.844,2444.246 4539.531,2606.155 4621.531,2728.093" style="stroke:#64748B;stroke-width:3.125;" fill="none" id="TenantProvisioningService-to-TenantCredentialService" codeLine="130"/><polygon points="4630.25,2741.059,4624.928,2710.745,4621.531,2728.093,4604.183,2724.695,4630.25,2741.059" fill="#64748B" style="stroke:#64748B;stroke-width:3.125;stroke-linejoin:miter;stroke-miterlimit:10;"/><text x="4340.625" y="2361.606" fill="#000" font-size="40.625" textLength="406.409">decrypts DB password</text></g><!--link TenantProvisioningService to TenantDataSourceFactory--><g class="link" data-entity-1="ent0015" data-entity-2="ent0017" id="lnk32" data-source-line="131" data-link-type="dependency"><path d="M3502.344,2196.652 C3441.375,2233.246 3379.75,2273.809 3325,2316.309 C3160.719,2443.84 3008.026,2607.011 2902.026,2729.074" style="stroke:#64748B;stroke-width:3.125;" fill="none" id="TenantProvisioningService-to-TenantDataSourceFactory" codeLine="131"/><polygon points="2891.781,2740.871,2919.66,2727.832,2902.026,2729.074,2900.784,2711.44,2891.781,2740.871" fill="#64748B" style="stroke:#64748B;stroke-width:3.125;stroke-linejoin:miter;stroke-miterlimit:10;"/></g><!--link TenantProvisioningService to BCrypt--><g class="link" data-entity-1="ent0015" data-entity-2="ent0021" id="lnk33" data-source-line="132" data-link-type="dependency"><path d="M3820.625,2196.277 C3806.219,2376.871 3785.336,2638.108 3774.055,2779.546" style="stroke:#64748B;stroke-width:3.125;" fill="none" id="TenantProvisioningService-to-BCrypt" codeLine="132"/><polygon points="3772.813,2795.121,3787.509,2768.079,3774.055,2779.546,3762.588,2766.091,3772.813,2795.121" fill="#64748B" style="stroke:#64748B;stroke-width:3.125;stroke-linejoin:miter;stroke-miterlimit:10;"/><text x="3815.625" y="2361.606" fill="#000" font-size="40.625" textLength="438.087">hashes admin password</text></g><!--link TenantInfoRepository to MasterDB--><g class="link" data-entity-1="ent0009" data-entity-2="ent0018" id="lnk34" data-source-line="133" data-link-type="dependency"><path d="M5787.938,1818.871 C5642.25,1719.34 5452.719,1609.871 5264.063,1558.496 C5031.563,1495.152 3311.188,1451.434 3095.313,1558.496 C2952.094,1629.527 2858.455,1775.926 2802.549,1887.77" style="stroke:#64748B;stroke-width:3.125;" fill="none" id="TenantInfoRepository-to-MasterDB" codeLine="133"/><polygon points="2795.563,1901.746,2819.319,1882.178,2802.549,1887.77,2796.957,1871,2795.563,1901.746" fill="#64748B" style="stroke:#64748B;stroke-width:3.125;stroke-linejoin:miter;stroke-miterlimit:10;"/></g><!--link TenantDataSourceFactory to Flyway--><g class="link" data-entity-1="ent0017" data-entity-2="ent0020" id="lnk35" data-source-line="134" data-link-type="dependency"><path d="M2794.281,3035.402 C2821.438,3210.027 2864.006,3483.494 2886.693,3629.4" style="stroke:#64748B;stroke-width:3.125;" fill="none" id="TenantDataSourceFactory-to-Flyway" codeLine="134"/><polygon points="2889.094,3644.84,2897.124,3615.128,2886.693,3629.4,2872.421,3618.969,2889.094,3644.84" fill="#64748B" style="stroke:#64748B;stroke-width:3.125;stroke-linejoin:miter;stroke-miterlimit:10;"/></g><!--link Flyway to TenantDB--><g class="link" data-entity-1="ent0020" data-entity-2="ent0019" id="lnk36" data-source-line="135" data-link-type="dependency"><path d="M2963.188,3830.402 C3026.063,3923.621 3116.266,4057.384 3185.11,4159.509" style="stroke:#64748B;stroke-width:3.125;" fill="none" id="Flyway-to-TenantDB" codeLine="135"/><polygon points="3193.844,4172.465,3188.488,4142.157,3185.11,4159.509,3167.758,4156.131,3193.844,4172.465" fill="#64748B" style="stroke:#64748B;stroke-width:3.125;stroke-linejoin:miter;stroke-miterlimit:10;"/><text x="3125" y="4067.856" fill="#000" font-size="40.625" textLength="155.775">migrates</text></g><!--link TenantProvisioningService to TenantDB--><g class="link" data-entity-1="ent0015" data-entity-2="ent0019" id="lnk37" data-source-line="136" data-link-type="dependency"><path d="M3613.344,2196.309 C3534.781,2270.34 3454.625,2363.496 3409.375,2466.309 C3264.688,2794.934 3346.844,3722.059 3306.25,4078.809 C3302.781,4109.184 3300.481,4126.449 3295.543,4156.762" style="stroke:#64748B;stroke-width:3.125;" fill="none" id="TenantProvisioningService-to-TenantDB" codeLine="136"/><polygon points="3293.031,4172.184,3309.89,4146.434,3295.543,4156.762,3285.215,4142.415,3293.031,4172.184" fill="#64748B" style="stroke:#64748B;stroke-width:3.125;stroke-linejoin:miter;stroke-miterlimit:10;"/><text x="3321.875" y="3449.106" fill="#000" font-size="40.625" textLength="544.173">creates DB/user; seeds admin</text></g><!--reverse link TenantDB to TenantAdmin--><g class="link" data-entity-1="ent0019" data-entity-2="ent0023" id="lnk38" data-source-line="137" data-link-type="composition"><path d="M3409.95,4437.379 C3461.981,4491.785 3498.375,4530.746 3553.125,4591.309 C3610.938,4655.277 3672.313,4725.371 3728.875,4790.934" style="stroke:#64748B;stroke-width:3.125;" fill="none" id="TenantDB-backto-TenantAdmin" codeLine="137"/><polygon points="3384.031,4410.277,3387.957,4432.468,3409.95,4437.379,3406.024,4415.189,3384.031,4410.277" fill="#64748B" style="stroke:#64748B;stroke-width:3.125;stroke-linejoin:miter;stroke-miterlimit:10;"/><text x="3528.125" y="4555.356" fill="#000" font-size="40.625" textLength="377.11">contains initial admin</text><text x="3380.115" y="4478.105" fill="#000" font-size="40.625">1</text><text x="3686.256" y="4757.142" fill="#000" font-size="40.625">1</text></g><!--link TenantProvisioningService to GMN45--><g class="link" data-entity-1="ent0015" data-entity-2="ent0046" id="lnk47" data-source-line="152" data-link-type="association"><path d="M3296.594,2196.027 C3211.188,2221.996 3123.688,2247.809 3040.625,2270.996 C2693.313,2367.996 2587.656,2331.715 2253.125,2466.309 C2010.969,2563.746 1751.469,2729.652 1617.281,2820.652" style="stroke:#64748B;stroke-width:3.125;stroke-dasharray:21.875,21.875;" fill="none" id="TenantProvisioningService-GMN45"/></g><?plantuml-src dLZDSjis4BxpAJ3kHOujnsuT9wEwcg54AT6CBQkMd1wQJWSY8GbZ2c01q8hYUgOFqIViatG1WYBuezY9BvQ0tUNkjxlVBgMeYWcQ3SR-UDO-kq3__VClcgO94SYFrfIXlY1OWG1XcAbFp4-Ic8POKSxQ4P5qoT039Pk4KwOyJzvJbc21roXAAFhfzDGvcUFmVYbuog8-Zxb0FmpDdoCXLpZY6ygMQ85ZIPoR17JnaapL5dmL95IOBMDN88onbBvIWivJHKOXPrFwXI3t-RuGV6CVVN7-zlnTpxdiQ_qU5n4HLgJV2zuCpceYjI3U3VrXtn4RCKN40eUa9ZeO3YzAyOwvgai196y7GLNAzMmOzFotvvvdGK47rrZ2Cz5lP8vU8tyoEiYVXHuzb463CfaiYttEbE1n33gNbxU3wGo5kvDkroWXTCJPd6CHPIejGVvAYLGTTECUtsQdXnrqIsJ2cIG3fgZQNle9pKykSz7iQxSBvf-ydMDDzi0j-pmKp6uAbq8UaGwQGfRPCZjXU5qvaUayucjCMVauJANYws1-9-By0lr-Ud9ozaTs7ytl916kkShr19pTG1egr-Xn8wWYRSxYxLCviYmaqqNFn8Mrp02SZijEc_DnBKHpNFFdEKVo11WdxCUI5nHiNV4TOD-FTJIl-omLLgcivCHGI-Gh_TmGnm5ycz4roRrlB8rs--zk0xJUKxqX0kCRQasuL4j1fhzU7K9h34-7mV1yJsjCYNYWeSO85qI7P7RwlRsHVH-n1JVQRK6Mj7ZajwjZ1gZd-MyTba1jF-2OHW0a57ehBOhz69Mp0beFd4Ovr3HdBUTfjoJXaYekjW37EeDKxCuACCXdY4Rsjdsec9PRDl2CEUSnmQmiECtBfbKheAgAn0_4Pz4mJkMgfOnhBY1rT8uMb4MzxIXgvUKCCZU9JYEEBmlXRbEBw8iYLcAex2NzWHvJHY5TJozkb8f6EJUrIuUqzh5Lblm6cdeaB1JR1FhCcbjZ1aqIGRFXEPQa2lYtzIdSfadqrIucB5rRVAV6kCLpSdlpSJGTtOn7u_VcmE_FHXy7vkFG7rt14DGVftVJoM0Sc6_6dfEgThjRjjn1cVybCQUE3yuEZD81SFUh0zTK1y7A8tLzbfXa8lW3bL0y6ihNCDmN0ef3fA5A1Jd8fxL39fb9LwsWbCGrLkEKtUskSe-HOVfE0zqrq4AMfJojq3IwH9fxndO-A4a2cTDsMv14FEMf2A4YWjtdhxlWCeWRFkoCaUuU71V1InAcCA2szS1jWLfN-qvV7SFYLoxdmqeVaFsg8KrMH2ZoMJKfrtmkOXxYq98UBQKRjjAmp7mPvCqOVw3tMD32gcq-kXHQnKMxAja8R3xJYbdsYRKWrJ4Oo9ulORZXV9e5FN0_ihLWLYvh9Y2HdceaijwYwst9LWhfaUZ8saGoN94rpYnRdFPP7iRR3TxcYbcWKCtIwDhBAgIkVg-lKubo0XimpR32QDihfuX2leOD1ceCBBZzQeFA9t-qYpRts6m0CFzBox5JtF0G6q661Bmpx9i0n5tOAfoTr-q7B5VbabsaSLnVZs3vBkZ_5_iwzgSVN8_6JRmC8ZksVD80x5dlDTSrRb5GOdPFa5_JRLYDzecVd7IhYsO7hN424DhlNjEYLL1ucQgV4QupJ0TP7f48IZJ7_napJJmDao0_bGWligr7BsnPFNlxDVV50YQp8IdpyVGI6qqXMhuhX_WIOpLsUqRBTbm7hQ20mMyp1QgFh4HP54pGy_QHgXRAoC2pdE0usTCbap7aop0o6XaBQqnUwvxz6UcXPbtsTd9wzBzgjyr_jzyxvkKNs4B24amrt5RJO_3YZGHThXJYY_AupS9iymq3QW5zHaBpeh0c2ckcGVejx0G4YuLCyub4_c3Q_l7DHVjz_nfjg5hbTAcvJZETxmTQ3LxYTsqZ4VaSnYdSGnHtjrV7XfdqxWV3cKMxf9nu1BvffwthSwxWbRVm7RAYtwa8IbPR2RGOnteOwnyPGDYCWHrBwcN8kgRTcS4W9OXAi8uMN13zgyyzsI8kz6ysKAV0HgC0GOSmYGqIe3GdQaC8GxN1PRnsfy-pdZSKWGR9jGauQG787KZgGejvUAzt3KWe_G8WbfQlSdWJB4pURIu0U5EoK492_zgaYmD2XC0HZGZC7P3JKafi7S__1m00?></g></svg>